<?xml version="1.0" encoding="UTF-8"?> <svg xmlns="http://www.w3.org/2000/svg" xmlns:xlink="http://www.w3.org/1999/xlink" width="52px" height="40px" viewBox="0 0 52 40" version="1.1"><title>Group 79</title><defs><polygon id="path-1" points="0 40 51.9861991 40 51.9861991 0 0 0"></polygon></defs><g id="Pages" stroke="none" stroke-width="1" fill="none" fill-rule="evenodd"><g id="About" transform="translate(-64.000000, -16.000000)"><g id="Group-79" transform="translate(64.000000, 16.000000)"><path d="M27.2584493,1.89875 C27.4039754,0.80175 28.3398521,0 29.4005536,0 C29.5046768,0 29.5877289,0 29.6917289,0.021125 C30.8771318,0.189875 31.7090085,1.286875 31.5426578,2.4895 C31.3763071,3.692 30.294781,4.535875 29.1093782,4.367125 C27.9448,4.198375 27.1129232,3.10125 27.2584493,1.89875" id="Fill-1" fill="#989898"></path><path d="M21.9760502,0.084425 C22.0800502,0.0633 22.2048749,0.0633 22.3087517,0.0633 C23.3486284,0.0633 24.2845052,0.843925 24.4508559,1.919925 C24.6380313,3.122425 23.8269791,4.24055 22.6415763,4.430425 C21.4561735,4.6203 20.3538227,3.79755 20.1666474,2.594925 C19.979472,1.392425 20.7906474,0.2743 21.9760502,0.084425" id="Fill-3" fill="#989898"></path><path d="M14.572273,2.3840375 C14.8634483,2.2364125 15.1754483,2.1730375 15.4873251,2.1730375 C16.2983773,2.1730375 17.0679033,2.6371625 17.442254,3.4389125 C17.962254,4.5359125 17.4839033,5.8439125 16.4023773,6.3502875 C15.3209744,6.8776625 14.0315716,6.3925375 13.5323962,5.2954125 C13.0333441,4.2195375 13.4908701,2.9114125 14.572273,2.3840375" id="Fill-5" fill="#989898"></path><path d="M40.6102995,6.6034 C41.0470009,6.097025 41.6500531,5.8439 42.2532284,5.8439 C42.7524038,5.8439 43.2515791,6.01265 43.6674559,6.371275 C44.5616834,7.1519 44.6865081,8.544275 43.8962806,9.47265 C43.1267545,10.4009 41.7540531,10.5064 40.8390009,9.70465 C39.9239488,8.903025 39.8199488,7.53165 40.6102995,6.6034" id="Fill-7" fill="#989898"></path><path d="M8.14598483,6.708875 C8.56198483,6.329125 9.08186161,6.160375 9.58103697,6.160375 C10.1840891,6.160375 10.7664398,6.4135 11.2031412,6.89875 C11.9934919,7.805875 11.931018,9.198375 11.0367905,10 C10.142563,10.80175 8.76986161,10.717375 7.97963412,9.83125 C7.16858199,8.903 7.25175735,7.531625 8.14598483,6.708875" id="Fill-9" fill="#989898"></path><path d="M45.7470246,11.6244625 C46.1005507,11.3923375 46.5165507,11.2658375 46.9116028,11.2658375 C47.6187782,11.2658375 48.3051289,11.6244625 48.7210057,12.2573375 C49.3657071,13.2700875 49.0953564,14.6413375 48.0763043,15.2953375 C47.0780768,15.9493375 45.7262,15.6750875 45.0816218,14.6413375 C44.4576218,13.6287125 44.7487972,12.2784625 45.7470246,11.6244625" id="Fill-11" fill="#989898"></path><path d="M3.17543791,12.7215 C3.59143791,12.046375 4.29849005,11.68775 5.00554218,11.68775 C5.40071754,11.68775 5.79589289,11.79325 6.14941896,12.02525 C7.16847109,12.65825 7.48047109,14.008375 6.83576967,15.042125 C6.21176967,16.075875 4.88084076,16.392375 3.86178863,15.738375 C2.84273649,15.084375 2.53073649,13.734125 3.17543791,12.7215" id="Fill-13" fill="#989898"></path><path d="M0.0767554502,19.8945375 C0.347106161,18.9240375 1.22063223,18.2911625 2.156509,18.2911625 C2.34368436,18.2911625 2.53085972,18.3122875 2.73873649,18.3755375 C3.88261327,18.6920375 4.56896398,19.8945375 4.25696398,21.0759125 C3.94496398,22.2362875 2.75956114,22.9325375 1.59498294,22.6160375 C0.430281517,22.2785375 -0.23524455,21.0759125 0.0767554502,19.8945375" id="Fill-15" fill="#989898"></path><path d="M26.9257232,6.47675 C27.0298464,5.696125 27.6952493,5.1265 28.4439507,5.1265 C28.5063014,5.1265 28.5894768,5.1265 28.6518275,5.147625 C29.4837043,5.253125 30.0868796,6.03375 29.9621782,6.89875 C29.858055,7.742625 29.0887754,8.354375 28.2359507,8.22775 C27.4040739,8.122375 26.8008986,7.34175 26.9257232,6.47675" id="Fill-17" fill="#989898"></path><path d="M23.1822284,5.211 C23.2654038,5.189875 23.3485791,5.189875 23.4110531,5.189875 C24.1596313,5.189875 24.8044559,5.738375 24.9291573,6.519 C25.053982,7.362875 24.4924559,8.164625 23.6397545,8.291125 C22.8078777,8.41775 22.0176502,7.848125 21.8928256,6.983125 C21.7680009,6.118125 22.329527,5.337625 23.1822284,5.211" id="Fill-19" fill="#989898"></path><path d="M31.8962578,7.447275 C32.1456607,6.87765 32.70731,6.519025 33.2896607,6.519025 C33.4976607,6.519025 33.7056607,6.56115 33.9135374,6.645525 C34.6830635,7.004275 35.0364664,7.9114 34.6830635,8.692025 C34.3295374,9.47265 33.4350635,9.831275 32.6657839,9.47265 C31.8962578,9.15615 31.5427318,8.2279 31.8962578,7.447275" id="Fill-21" fill="#989898"></path><path d="M17.9414047,6.8354625 C18.1494047,6.7299625 18.3781062,6.6878375 18.5861062,6.6878375 C19.1684569,6.6878375 19.7091583,7.0253375 19.979509,7.5738375 C20.3330351,8.3544625 20.0211583,9.2827125 19.2516322,9.6413375 C18.4821062,9.9999625 17.567054,9.6835875 17.213528,8.9029625 C16.8391773,8.1223375 17.1718787,7.1940875 17.9414047,6.8354625" id="Fill-23" fill="#989898"></path><path d="M36.3883555,9.810125 C36.7003555,9.4515 37.1162322,9.261625 37.5529336,9.261625 C37.9065829,9.261625 38.2599858,9.388125 38.5512844,9.641375 C39.1959858,10.189875 39.2583365,11.181375 38.7176351,11.8355 C38.156109,12.4895 37.1994076,12.55275 36.5547062,12.00425 C35.9100047,11.45575 35.8268294,10.464125 36.3883555,9.810125" id="Fill-25" fill="#989898"></path><path d="M13.3660455,9.8945375 C13.6572209,9.6202875 14.0315716,9.4936625 14.3850976,9.4936625 C14.8010976,9.4936625 15.2169744,9.6624125 15.5289744,10.0211625 C16.0905005,10.6540375 16.0280265,11.6455375 15.4041498,12.2151625 C14.780273,12.7847875 13.8027469,12.7215375 13.2412209,12.0886625 C12.6796948,11.4556625 12.7421687,10.4641625 13.3660455,9.8945375" id="Fill-27" fill="#989898"></path><path d="M40.0278749,13.3755 C40.2774009,13.20675 40.5685763,13.122375 40.8597517,13.122375 C41.358927,13.122375 41.8579791,13.3755 42.1491545,13.839625 C42.6066806,14.556875 42.3988038,15.527375 41.6916284,15.9915 C40.9845763,16.455625 40.0278749,16.24475 39.5703488,15.527375 C39.1128227,14.810125 39.3208227,13.839625 40.0278749,13.3755" id="Fill-29" fill="#989898"></path><path d="M9.85130142,14.1561375 C10.1424768,13.6920125 10.6416521,13.4177625 11.1615289,13.4177625 C11.4318796,13.4177625 11.723055,13.5021375 11.972581,13.6497625 C12.7004578,14.0928875 12.9084578,15.0632625 12.4717564,15.7806375 C12.0142303,16.5190125 11.0783536,16.7300125 10.3711782,16.2868875 C9.62247678,15.8438875 9.39377536,14.8733875 9.85130142,14.1561375" id="Fill-31" fill="#989898"></path><path d="M7.64677251,19.2404875 C7.83394787,18.5442375 8.45782464,18.1012375 9.12335071,18.1012375 C9.24817536,18.1012375 9.39370142,18.1223625 9.53935071,18.1644875 C10.3504028,18.3966125 10.8287536,19.2404875 10.6207536,20.0843625 C10.3919289,20.9071125 9.56005213,21.3923625 8.72817536,21.1813625 C7.89629858,20.9282375 7.41794787,20.0632375 7.64677251,19.2404875" id="Fill-33" fill="#989898"></path><path d="M26.6554464,10.2320625 C26.7177972,9.7046875 27.1546218,9.3249375 27.6744986,9.3249375 L27.8199014,9.3249375 C28.3815507,9.4093125 28.7767261,9.9155625 28.6935507,10.4851875 C28.6102521,11.0548125 28.1110768,11.4556875 27.5496739,11.3713125 C26.9673232,11.3080625 26.5721479,10.8016875 26.6554464,10.2320625" id="Fill-35" fill="#989898"></path><path d="M24.1389422,9.367075 C24.2012929,9.367075 24.2429422,9.34595 24.2844682,9.34595 C24.7836436,9.34595 25.220345,9.704575 25.3035204,10.232075 C25.386819,10.801825 25.0124682,11.329075 24.4509422,11.41345 C23.8894161,11.497825 23.3694161,11.118075 23.2862408,10.54845 C23.2030654,9.979075 23.5774161,9.45145 24.1389422,9.367075" id="Fill-37" fill="#989898"></path><path d="M29.9621289,10.865 C30.1284796,10.48525 30.5028303,10.253125 30.8980057,10.253125 C31.0434085,10.253125 31.189181,10.27425 31.3138825,10.337625 C31.8337592,10.569625 32.0625839,11.1815 31.8337592,11.708875 C31.6050578,12.23625 31.0018825,12.468375 30.4820057,12.23625 C29.9621289,12.00425 29.7333043,11.392375 29.9621289,10.865" id="Fill-39" fill="#989898"></path><path d="M20.6449735,10.464125 C20.7904995,10.400875 20.9361488,10.358625 21.0816749,10.358625 C21.4560256,10.358625 21.8303763,10.569625 21.996727,10.949375 C22.2463763,11.47675 22.0175517,12.088625 21.5184995,12.320625 C20.9984995,12.573875 20.3954474,12.34175 20.1666227,11.835375 C19.9170967,11.308 20.1457981,10.69625 20.6449735,10.464125" id="Fill-41" fill="#989898"></path><path d="M17.6086171,12.5105625 C17.7957924,12.3418125 18.0453185,12.2574375 18.2949678,12.2574375 C18.5860199,12.2574375 18.8564938,12.3839375 19.0643706,12.5949375 C19.4387213,13.0169375 19.3971953,13.6709375 18.9811953,14.0506875 C18.5653185,14.4304375 17.9206171,14.3881875 17.5462664,13.9663125 C17.151091,13.5443125 17.1926171,12.8903125 17.6086171,12.5105625" id="Fill-43" fill="#989898"></path><path d="M35.390054,14.810125 C35.556528,14.704625 35.7644047,14.641375 35.9517033,14.641375 C36.2842815,14.641375 36.6171062,14.810125 36.8044047,15.1055 C37.1161583,15.59075 36.9706322,16.223625 36.5131062,16.540125 C36.0347555,16.8565 35.4108787,16.708875 35.0990019,16.24475 C34.7663005,15.780625 34.9117033,15.126625 35.390054,14.810125" id="Fill-45" fill="#989898"></path><path d="M37.0539308,17.7848 C37.1579308,17.763675 37.2411062,17.74255 37.3451062,17.74255 C37.7818076,17.74255 38.1978076,18.037925 38.322509,18.48105 C38.4889829,19.02955 38.1768597,19.599175 37.6362815,19.767925 C37.0955801,19.936675 36.534054,19.6203 36.3675801,19.071675 C36.2012294,18.523175 36.5131062,17.95355 37.0539308,17.7848" id="Fill-47" fill="#989898"></path><path d="M13.8027962,18.7341375 C13.9276209,18.2700125 14.3434976,17.9746375 14.7801991,17.9746375 C14.8634976,17.9746375 14.9673744,17.9957625 15.050673,18.0168875 C15.5913744,18.1645125 15.9240758,18.7341375 15.7577251,19.2826375 C15.6121991,19.8311375 15.050673,20.1688875 14.5098483,20.0000125 C13.9691469,19.8522625 13.6364455,19.2826375 13.8027962,18.7341375" id="Fill-49" fill="#989898"></path><path d="M26.4473848,12.9325 C26.4890341,12.595 26.7800863,12.362875 27.0920863,12.362875 L27.1752616,12.362875 C27.5287877,12.405125 27.778437,12.742625 27.7367877,13.10125 C27.6952616,13.459875 27.362437,13.713125 27.0090341,13.670875 C26.6553848,13.62875 26.4057355,13.31225 26.4473848,12.9325" id="Fill-51" fill="#989898"></path><path d="M24.8459697,12.4051 L24.9499697,12.4051 C25.2619697,12.4051 25.5323204,12.637225 25.5946711,12.974725 C25.6570218,13.33335 25.4074957,13.670975 25.0539697,13.734225 C24.7004436,13.797475 24.367619,13.54435 24.3052682,13.185725 C24.263619,12.78485 24.4924436,12.44735 24.8459697,12.4051" id="Fill-53" fill="#989898"></path><path d="M28.5479507,13.3544375 C28.6519507,13.1013125 28.9013536,12.9746875 29.1303014,12.9746875 C29.2133536,12.9746875 29.3173536,12.9958125 29.4006521,13.0379375 C29.7332303,13.1856875 29.8790028,13.5865625 29.7332303,13.9029375 C29.5877043,14.2405625 29.1925289,14.3881875 28.8805289,14.2405625 C28.5479507,14.0716875 28.4023014,13.6919375 28.5479507,13.3544375" id="Fill-55" fill="#989898"></path><path d="M20.6865981,14.3881875 C20.8114227,14.2826875 20.9569488,14.2194375 21.1232995,14.2194375 C21.3104749,14.2194375 21.4769488,14.3038125 21.6016502,14.4304375 C21.8511763,14.7046875 21.8096502,15.1265625 21.5601242,15.3586875 C21.2897735,15.5906875 20.8737735,15.5695625 20.6449488,15.2953125 C20.3954227,15.0421875 20.437072,14.6413125 20.6865981,14.3881875" id="Fill-57" fill="#989898"></path><path d="M32.00011,15.865 C32.1042332,15.80175 32.2289346,15.7595 32.353636,15.7595 C32.5617592,15.7595 32.769636,15.865 32.8944607,16.054875 C33.0815128,16.35025 32.9984607,16.772125 32.7071621,16.962 C32.41611,17.151875 32.00011,17.0675 31.8129346,16.772125 C31.6049346,16.476875 31.7090578,16.054875 32.00011,15.865" id="Fill-59" fill="#989898"></path><path d="M19.2100938,16.1814625 C19.3349185,15.9915875 19.5427953,15.8649625 19.7716199,15.8649625 C19.8964445,15.8649625 20.0003213,15.9072125 20.1043213,15.9704625 C20.4163213,16.1603375 20.4994967,16.5612125 20.3123213,16.8777125 C20.125146,17.1940875 19.7299706,17.2784625 19.4179706,17.0885875 C19.1060938,16.8987125 19.0020938,16.4979625 19.2100938,16.1814625" id="Fill-61" fill="#989898"></path><path d="M33.0609839,17.742625 C33.1233346,17.7215 33.1858085,17.7215 33.2481592,17.7215 C33.5393346,17.7215 33.7887374,17.911375 33.872036,18.185625 C33.976036,18.544375 33.7679128,18.903 33.4352114,19.0085 C33.0818085,19.113875 32.7282825,18.903 32.6241592,18.565375 C32.5201592,18.227875 32.7282825,17.848125 33.0609839,17.742625" id="Fill-63" fill="#989898"></path><path d="M18.2740692,18.3544375 C18.3572445,18.0590625 18.6067706,17.8691875 18.897946,17.8691875 C18.9604199,17.8691875 19.001946,17.8691875 19.0642967,17.8903125 C19.417946,17.9958125 19.6051213,18.3544375 19.521946,18.6919375 C19.417946,19.0506875 19.0642967,19.2405625 18.7315953,19.1561875 C18.3780692,19.0716875 18.1700692,18.6919375 18.2740692,18.3544375" id="Fill-65" fill="#989898"></path><path d="M42.5236284,17.8270375 C42.6691545,17.7847875 42.8146806,17.7637875 42.9603299,17.7637875 C43.6257327,17.7637875 44.2290313,18.2067875 44.4367848,18.8819125 C44.6865573,19.7046625 44.2082066,20.5696625 43.3971545,20.8016625 C42.5859791,21.0337875 41.7332777,20.5696625 41.4837517,19.7469125 C41.2550502,18.9451625 41.7125763,18.0801625 42.5236284,17.8270375" id="Fill-67" fill="#989898"></path><mask id="mask-2" fill="white"><use xlink:href="#path-1"></use></mask><g id="Clip-70"></g><polygon id="Fill-69" fill="#005FAA" mask="url(#mask-2)" points="48.2426919 39.978875 51.8198483 39.978875 51.8198483 25.48525 48.2426919 25.48525"></polygon><path d="M5.00560379,32.7426875 C5.00560379,31.7510625 5.81665592,30.9281875 6.79418199,30.9281875 L17.6085801,30.9281875 C17.8582294,30.9281875 18.0662294,30.8228125 18.2325801,30.6540625 C18.3989308,30.4851875 18.5029308,30.2743125 18.5029308,30.0211875 C18.5029308,29.7679375 18.3989308,29.5570625 18.2325801,29.3881875 C18.0662294,29.2193125 17.8582294,29.1139375 17.6085801,29.1139375 L7.14770806,29.1139375 C6.14948057,29.1139375 5.2759545,29.5148125 4.63125308,30.1686875 C3.98655166,30.8228125 3.5913763,31.7299375 3.5913763,32.7426875 C3.5913763,33.7553125 3.98655166,34.6413125 4.63125308,35.3165625 C5.2759545,35.9704375 6.17018199,36.3713125 7.14770806,36.3713125 L22.079964,36.3713125 L22.079964,40.0000625 L7.14770806,40.0000625 C5.1719545,40.0000625 3.3833763,39.1773125 2.09397346,37.8693125 C0.804570616,36.5613125 0.014343128,34.7468125 0.014343128,32.7426875 C0.014343128,30.7384375 0.804570616,28.9239375 2.09397346,27.6159375 C3.3833763,26.3079375 5.1719545,25.4851875 7.14770806,25.4851875 L17.6085801,25.4851875 C18.8356322,25.4851875 19.9586844,25.9916875 20.7698597,26.8144375 C21.5809118,27.6370625 22.079964,28.7764375 22.079964,30.0211875 C22.079964,31.2659375 21.5809118,32.4051875 20.7698597,33.2279375 C19.9586844,34.0506875 18.8356322,34.5570625 17.6085801,34.5570625 L6.79418199,34.5570625 C5.7959545,34.5570625 5.00560379,33.7341875 5.00560379,32.7426875" id="Fill-71" fill="#005FAA" mask="url(#mask-2)"></path><path d="M29.0053412,32.7426875 C29.0053412,33.7553125 29.7956919,34.5570625 30.7940427,34.5570625 L41.6084408,34.5570625 C41.8579668,34.5570625 42.0659668,34.6624375 42.2323175,34.8313125 C42.3986682,35.0000625 42.5026682,35.2109375 42.5026682,35.4640625 C42.5026682,35.7173125 42.3986682,35.9281875 42.2323175,36.0970625 C42.0659668,36.2659375 41.8579668,36.3713125 41.6084408,36.3713125 L31.1474455,36.3713125 C30.149218,36.3713125 29.2756919,35.9704375 28.6309905,35.3165625 C27.9862891,34.6624375 27.5911137,33.7553125 27.5911137,32.7426875 C27.5911137,31.7299375 27.9862891,30.8439375 28.6309905,30.1686875 C29.2756919,29.5148125 30.1699194,29.1139375 31.1474455,29.1139375 L46.0797014,29.1139375 L46.0797014,25.4851875 L31.1474455,25.4851875 C29.1718152,25.4851875 27.3831137,26.3079375 26.0937109,27.6159375 C24.8043081,28.9239375 23.9932559,30.7384375 24.0140806,32.7426875 C24.0140806,34.7468125 24.8043081,36.5613125 26.0937109,37.8693125 C27.3831137,39.1773125 29.1718152,40.0000625 31.1474455,40.0000625 L41.5876161,40.0000625 C42.8146682,40.0000625 43.9377204,39.4936875 44.7488957,38.6709375 C45.5599479,37.8481875 46.059,36.7088125 46.059,35.4640625 C46.059,34.2193125 45.5599479,33.0800625 44.7488957,32.2573125 C43.9377204,31.4345625 42.8146682,30.9281875 41.5876161,30.9281875 L30.773218,30.9281875 C29.7956919,30.9281875 29.0053412,31.7510625 29.0053412,32.7426875" id="Fill-72" fill="#005FAA" mask="url(#mask-2)"></path><path d="M51.9862607,19.6624875 C51.9862607,20.8649875 51.0088578,21.8566125 49.8233318,21.8566125 C48.6379289,21.8566125 47.6605261,20.8649875 47.6605261,19.6624875 C47.6605261,18.4599875 48.6379289,17.4683625 49.8233318,17.4683625 C51.0088578,17.4683625 51.9862607,18.4599875 51.9862607,19.6624875" id="Fill-73" fill="#005FAA" mask="url(#mask-2)"></path><path d="M38.4057706,4.1561375 C38.4057706,5.3586375 37.448946,6.3502625 36.2427185,6.3502625 C35.0573156,6.3502625 34.080036,5.3586375 34.080036,4.1561375 C34.080036,2.9536375 35.036491,1.9620125 36.2427185,1.9620125 C37.4282445,1.9620125 38.4057706,2.9536375 38.4057706,4.1561375" id="Fill-74" fill="#989898" mask="url(#mask-2)"></path><path d="M34.7455498,13.1223875 C34.7455498,13.6920125 34.2879005,14.1561375 33.7263744,14.1561375 C33.1649716,14.1561375 32.7074455,13.6920125 32.7074455,13.1223875 C32.7074455,12.5527625 33.1649716,12.0886375 33.7263744,12.0886375 C34.2879005,12.0886375 34.7455498,12.5527625 34.7455498,13.1223875" id="Fill-75" fill="#989898" mask="url(#mask-2)"></path><path d="M17.151054,15.88605 C17.151054,16.455675 16.693528,16.9198 16.1320019,16.9198 C15.5704758,16.9198 15.1129498,16.455675 15.1129498,15.88605 C15.1129498,15.316425 15.5704758,14.8523 16.1320019,14.8523 C16.693528,14.8523 17.151054,15.316425 17.151054,15.88605" id="Fill-76" fill="#989898" mask="url(#mask-2)"></path><path d="M30.9394825,15.4430625 C31.2957194,15.4430625 31.5841839,15.1503125 31.5841839,14.7890625 C31.5841839,14.4278125 31.2957194,14.1350625 30.9394825,14.1350625 C30.5833687,14.1350625 30.2949043,14.4278125 30.2949043,14.7890625 C30.2949043,15.1503125 30.5833687,15.4430625 30.9394825,15.4430625" id="Fill-77" fill="#989898" mask="url(#mask-2)"></path><path d="M23.5565915,13.692025 C23.5565915,14.05065 23.2654161,14.346025 22.91189,14.346025 C22.558364,14.346025 22.2671886,14.05065 22.2671886,13.692025 C22.2671886,13.3334 22.558364,13.038025 22.91189,13.038025 C23.2654161,13.0169 23.5565915,13.312275 23.5565915,13.692025" id="Fill-78" fill="#989898" mask="url(#mask-2)"></path></g></g></g></svg> 